<mxfile host="app.diagrams.net" modified="2023-11-04T07:19:18.535Z" agent="Mozilla/5.0 (Windows NT 10.0; Win64; x64) AppleWebKit/537.36 (KHTML, like Gecko) Chrome/118.0.0.0 Safari/537.36 Edg/118.0.2088.76" etag="nkV1PppLEJU8RmhekuAj" version="22.0.8" type="device">
  <diagram name="Page-1" id="eyt5Uko7_Md3LbSu7-4j">
    <mxGraphModel dx="2023" dy="738" grid="1" gridSize="10" guides="1" tooltips="1" connect="1" arrows="1" fold="1" page="1" pageScale="1" pageWidth="850" pageHeight="1100" math="0" shadow="0">
      <root>
        <mxCell id="0" />
        <mxCell id="1" parent="0" />
        <mxCell id="O_Ee_NJtb7hIg3XR4iQf-1" value="PC" style="rounded=0;whiteSpace=wrap;html=1;" vertex="1" parent="1">
          <mxGeometry x="-670" y="440" width="40" height="110" as="geometry" />
        </mxCell>
        <mxCell id="O_Ee_NJtb7hIg3XR4iQf-2" value="IM" style="rounded=0;whiteSpace=wrap;html=1;" vertex="1" parent="1">
          <mxGeometry x="-480" y="400" width="120" height="190" as="geometry" />
        </mxCell>
        <mxCell id="O_Ee_NJtb7hIg3XR4iQf-3" value="" style="endArrow=classic;html=1;rounded=0;exitX=1;exitY=0.5;exitDx=0;exitDy=0;entryX=0;entryY=0.5;entryDx=0;entryDy=0;" edge="1" parent="1" source="O_Ee_NJtb7hIg3XR4iQf-1" target="O_Ee_NJtb7hIg3XR4iQf-2">
          <mxGeometry width="50" height="50" relative="1" as="geometry">
            <mxPoint x="-630" y="510" as="sourcePoint" />
            <mxPoint x="-510" y="500" as="targetPoint" />
          </mxGeometry>
        </mxCell>
        <mxCell id="O_Ee_NJtb7hIg3XR4iQf-5" value="" style="endArrow=classic;html=1;rounded=0;entryX=0;entryY=0.25;entryDx=0;entryDy=0;" edge="1" parent="1" target="O_Ee_NJtb7hIg3XR4iQf-6">
          <mxGeometry width="50" height="50" relative="1" as="geometry">
            <mxPoint x="-560" y="490" as="sourcePoint" />
            <mxPoint x="-560" y="190" as="targetPoint" />
            <Array as="points">
              <mxPoint x="-560" y="120" />
            </Array>
          </mxGeometry>
        </mxCell>
        <mxCell id="O_Ee_NJtb7hIg3XR4iQf-6" value="pcAdder" style="triangle;whiteSpace=wrap;html=1;" vertex="1" parent="1">
          <mxGeometry x="-390" y="90" width="110" height="120" as="geometry" />
        </mxCell>
        <mxCell id="O_Ee_NJtb7hIg3XR4iQf-11" value="" style="endArrow=classic;html=1;rounded=0;entryX=-0.015;entryY=0.925;entryDx=0;entryDy=0;entryPerimeter=0;" edge="1" parent="1" target="O_Ee_NJtb7hIg3XR4iQf-6">
          <mxGeometry width="50" height="50" relative="1" as="geometry">
            <mxPoint x="-480" y="200" as="sourcePoint" />
            <mxPoint x="-420" y="240" as="targetPoint" />
          </mxGeometry>
        </mxCell>
        <mxCell id="O_Ee_NJtb7hIg3XR4iQf-12" value="4" style="text;html=1;align=center;verticalAlign=middle;resizable=0;points=[];autosize=1;strokeColor=none;fillColor=none;" vertex="1" parent="1">
          <mxGeometry x="-455" y="178" width="30" height="30" as="geometry" />
        </mxCell>
        <mxCell id="O_Ee_NJtb7hIg3XR4iQf-14" value="" style="endArrow=classic;html=1;rounded=0;exitX=1.021;exitY=0.119;exitDx=0;exitDy=0;entryX=0;entryY=0.5;entryDx=0;entryDy=0;exitPerimeter=0;" edge="1" parent="1" source="O_Ee_NJtb7hIg3XR4iQf-2" target="O_Ee_NJtb7hIg3XR4iQf-15">
          <mxGeometry width="50" height="50" relative="1" as="geometry">
            <mxPoint x="-360" y="430" as="sourcePoint" />
            <mxPoint x="-320" y="300" as="targetPoint" />
            <Array as="points">
              <mxPoint x="-320" y="423" />
              <mxPoint x="-320" y="280" />
            </Array>
          </mxGeometry>
        </mxCell>
        <mxCell id="O_Ee_NJtb7hIg3XR4iQf-15" value="" style="ellipse;whiteSpace=wrap;html=1;aspect=fixed;" vertex="1" parent="1">
          <mxGeometry x="-230" y="210" width="140" height="140" as="geometry" />
        </mxCell>
        <mxCell id="O_Ee_NJtb7hIg3XR4iQf-16" value="" style="endArrow=classic;html=1;rounded=0;" edge="1" parent="1">
          <mxGeometry width="50" height="50" relative="1" as="geometry">
            <mxPoint x="-330" y="450" as="sourcePoint" />
            <mxPoint x="-250" y="450" as="targetPoint" />
          </mxGeometry>
        </mxCell>
        <mxCell id="O_Ee_NJtb7hIg3XR4iQf-17" value="" style="endArrow=classic;html=1;rounded=0;" edge="1" parent="1">
          <mxGeometry width="50" height="50" relative="1" as="geometry">
            <mxPoint x="-360" y="480" as="sourcePoint" />
            <mxPoint x="-280" y="480" as="targetPoint" />
          </mxGeometry>
        </mxCell>
        <mxCell id="O_Ee_NJtb7hIg3XR4iQf-18" value="" style="endArrow=classic;html=1;rounded=0;" edge="1" parent="1">
          <mxGeometry width="50" height="50" relative="1" as="geometry">
            <mxPoint x="-360" y="510" as="sourcePoint" />
            <mxPoint x="-280" y="510" as="targetPoint" />
          </mxGeometry>
        </mxCell>
        <mxCell id="O_Ee_NJtb7hIg3XR4iQf-19" value="" style="endArrow=classic;html=1;rounded=0;" edge="1" parent="1">
          <mxGeometry width="50" height="50" relative="1" as="geometry">
            <mxPoint x="-360" y="540" as="sourcePoint" />
            <mxPoint x="-280" y="540" as="targetPoint" />
          </mxGeometry>
        </mxCell>
      </root>
    </mxGraphModel>
  </diagram>
</mxfile>
